<svg width="121" height="83" viewBox="0 0 121 83" fill="none" xmlns="http://www.w3.org/2000/svg">
<path d="M11.624 38.14C10.5413 38.14 9.31867 38.0467 7.956 37.86C7.20933 37.7667 6.696 37.5707 6.416 37.272C6.136 36.9733 6.01467 36.488 6.052 35.816C6.18267 33.968 6.49067 31.6907 6.976 28.984C7.46133 26.2587 8.04933 23.636 8.74 21.116C8.87067 20.6493 9.132 20.3227 9.524 20.136C9.916 19.9493 10.4293 19.856 11.064 19.856C12.2027 19.856 12.772 20.1733 12.772 20.808C12.772 21.0693 12.716 21.368 12.604 21.704C12.1187 23.1973 11.6333 25.204 11.148 27.724C10.6627 30.2253 10.3173 32.6147 10.112 34.892C10.672 34.948 11.3067 34.976 12.016 34.976C15.2827 34.976 17.7187 33.9867 19.324 32.008C20.948 30.0293 21.76 27.388 21.76 24.084C21.76 21.8627 21.1253 20.1453 19.856 18.932C18.5867 17.7187 16.7947 17.112 14.48 17.112C12.9867 17.112 11.5027 17.3453 10.028 17.812C8.572 18.2787 7.256 18.8947 6.08 19.66C5.83733 19.828 5.576 19.912 5.296 19.912C4.97867 19.912 4.72667 19.7813 4.54 19.52C4.35333 19.24 4.26 18.904 4.26 18.512C4.26 18.064 4.33467 17.7 4.484 17.42C4.63333 17.1213 4.88533 16.8507 5.24 16.608C6.528 15.7307 8.04 15.068 9.776 14.62C11.512 14.1533 13.1827 13.92 14.788 13.92C17.0653 13.92 19.0347 14.3213 20.696 15.124C22.3573 15.908 23.636 17.0653 24.532 18.596C25.428 20.1267 25.876 21.9747 25.876 24.14C25.876 26.9587 25.316 29.4227 24.196 31.532C23.076 33.6227 21.4427 35.2467 19.296 36.404C17.1493 37.5613 14.592 38.14 11.624 38.14ZM41.4982 31.756C41.7409 31.756 41.9276 31.868 42.0582 32.092C42.2076 32.316 42.2822 32.624 42.2822 33.016C42.2822 33.7627 42.1049 34.3413 41.7502 34.752C41.0596 35.592 40.0796 36.3667 38.8102 37.076C37.5596 37.7853 36.2156 38.14 34.7782 38.14C32.8182 38.14 31.2969 37.608 30.2142 36.544C29.1316 35.48 28.5902 34.024 28.5902 32.176C28.5902 30.888 28.8609 29.6933 29.4022 28.592C29.9436 27.472 30.6902 26.5853 31.6422 25.932C32.6129 25.2787 33.7049 24.952 34.9182 24.952C36.0009 24.952 36.8689 25.2787 37.5222 25.932C38.1756 26.5667 38.5022 27.4347 38.5022 28.536C38.5022 29.824 38.0356 30.9347 37.1022 31.868C36.1876 32.7827 34.6289 33.5107 32.4262 34.052C32.8929 34.9107 33.7796 35.34 35.0862 35.34C35.9262 35.34 36.8782 35.0507 37.9422 34.472C39.0249 33.8747 39.9582 33.1 40.7422 32.148C40.9662 31.8867 41.2182 31.756 41.4982 31.756ZM34.4422 27.696C33.7516 27.696 33.1636 28.0973 32.6782 28.9C32.2116 29.7027 31.9782 30.6733 31.9782 31.812V31.868C33.0796 31.6067 33.9476 31.2147 34.5822 30.692C35.2169 30.1693 35.5342 29.5627 35.5342 28.872C35.5342 28.5173 35.4316 28.2373 35.2262 28.032C35.0396 27.808 34.7782 27.696 34.4422 27.696ZM51.8744 31.756C52.1171 31.756 52.3038 31.868 52.4344 32.092C52.5838 32.316 52.6584 32.624 52.6584 33.016C52.6584 33.7627 52.4811 34.3413 52.1264 34.752C51.3238 35.7413 50.4464 36.5533 49.4944 37.188C48.5611 37.8227 47.4971 38.14 46.3024 38.14C44.6598 38.14 43.4371 37.3933 42.6344 35.9C41.8504 34.4067 41.4584 32.4747 41.4584 30.104C41.4584 27.8267 41.7478 25.232 42.3264 22.32C42.9238 19.408 43.7918 16.9067 44.9304 14.816C46.0878 12.7253 47.4598 11.68 49.0464 11.68C49.9424 11.68 50.6424 12.1 51.1464 12.94C51.6691 13.7613 51.9304 14.9467 51.9304 16.496C51.9304 18.7173 51.3144 21.2933 50.0824 24.224C48.8504 27.1547 47.1798 30.0573 45.0704 32.932C45.2011 33.6973 45.4158 34.248 45.7144 34.584C46.0131 34.9013 46.4051 35.06 46.8904 35.06C47.6558 35.06 48.3278 34.8453 48.9064 34.416C49.4851 33.968 50.2224 33.212 51.1184 32.148C51.3424 31.8867 51.5944 31.756 51.8744 31.756ZM48.4304 14.452C48.0011 14.452 47.5158 15.2267 46.9744 16.776C46.4331 18.3253 45.9571 20.248 45.5464 22.544C45.1358 24.84 44.9118 27.0427 44.8744 29.152C46.1998 26.968 47.2544 24.784 48.0384 22.6C48.8224 20.3973 49.2144 18.3907 49.2144 16.58C49.2144 15.1613 48.9531 14.452 48.4304 14.452ZM55.3232 23.104C54.5392 23.104 53.9512 22.9267 53.5592 22.572C53.1672 22.1987 52.9712 21.6853 52.9712 21.032C52.9712 20.3787 53.2232 19.8373 53.7272 19.408C54.2499 18.96 54.8939 18.736 55.6592 18.736C56.3499 18.736 56.9099 18.904 57.3392 19.24C57.7686 19.576 57.9832 20.052 57.9832 20.668C57.9832 21.4147 57.7406 22.012 57.2552 22.46C56.7699 22.8893 56.1259 23.104 55.3232 23.104ZM55.0992 38.14C53.8859 38.14 52.9992 37.7107 52.4392 36.852C51.8979 35.9933 51.6272 34.8547 51.6272 33.436C51.6272 32.596 51.7299 31.5227 51.9352 30.216C52.1592 28.8907 52.4392 27.6587 52.7752 26.52C52.9432 25.9227 53.1672 25.512 53.4472 25.288C53.7272 25.064 54.1752 24.952 54.7912 24.952C55.7432 24.952 56.2192 25.2693 56.2192 25.904C56.2192 26.3707 56.0419 27.4533 55.6872 29.152C55.2392 31.2053 55.0152 32.596 55.0152 33.324C55.0152 33.884 55.0899 34.3133 55.2392 34.612C55.3886 34.9107 55.6406 35.06 55.9952 35.06C56.3312 35.06 56.7512 34.8267 57.2552 34.36C57.7592 33.8933 58.4312 33.156 59.2712 32.148C59.4952 31.8867 59.7472 31.756 60.0272 31.756C60.2699 31.756 60.4566 31.868 60.5872 32.092C60.7366 32.316 60.8112 32.624 60.8112 33.016C60.8112 33.7627 60.6339 34.3413 60.2792 34.752C58.4312 37.0107 56.7046 38.14 55.0992 38.14ZM65.1539 38.14C63.3245 38.14 61.8965 37.6267 60.8699 36.6C59.8619 35.5547 59.3579 34.1827 59.3579 32.484C59.3579 30.972 59.6565 29.6467 60.2539 28.508C60.8512 27.3693 61.6259 26.492 62.5779 25.876C63.5299 25.26 64.5285 24.952 65.5739 24.952C66.6005 24.952 67.3939 25.26 67.9539 25.876C68.5325 26.4733 68.8219 27.248 68.8219 28.2C68.8219 28.984 68.6445 29.6467 68.2899 30.188C67.9539 30.7293 67.5059 31 66.9459 31C66.5912 31 66.3019 30.916 66.0779 30.748C65.8725 30.58 65.7699 30.3467 65.7699 30.048C65.7699 29.9173 65.7885 29.768 65.8259 29.6C65.8632 29.432 65.8912 29.3107 65.9099 29.236C66.0032 28.956 66.0499 28.6947 66.0499 28.452C66.0499 28.2093 65.9845 28.0227 65.8539 27.892C65.7419 27.7613 65.5739 27.696 65.3499 27.696C64.9205 27.696 64.5192 27.892 64.1459 28.284C63.7725 28.6573 63.4739 29.1707 63.2499 29.824C63.0259 30.4773 62.9139 31.196 62.9139 31.98C62.9139 34.1453 63.8565 35.228 65.7419 35.228C66.5072 35.228 67.3285 34.976 68.2059 34.472C69.1019 33.9493 69.9792 33.1747 70.8379 32.148C71.0619 31.8867 71.3139 31.756 71.5939 31.756C71.8365 31.756 72.0232 31.868 72.1539 32.092C72.3032 32.316 72.3779 32.624 72.3779 33.016C72.3779 33.7253 72.2005 34.304 71.8459 34.752C70.9685 35.8347 69.9139 36.6747 68.6819 37.272C67.4685 37.8507 66.2925 38.14 65.1539 38.14ZM75.0425 23.104C74.2585 23.104 73.6705 22.9267 73.2785 22.572C72.8865 22.1987 72.6905 21.6853 72.6905 21.032C72.6905 20.3787 72.9425 19.8373 73.4465 19.408C73.9691 18.96 74.6131 18.736 75.3785 18.736C76.0691 18.736 76.6291 18.904 77.0585 19.24C77.4878 19.576 77.7025 20.052 77.7025 20.668C77.7025 21.4147 77.4598 22.012 76.9745 22.46C76.4891 22.8893 75.8451 23.104 75.0425 23.104ZM74.8185 38.14C73.6051 38.14 72.7185 37.7107 72.1585 36.852C71.6171 35.9933 71.3465 34.8547 71.3465 33.436C71.3465 32.596 71.4491 31.5227 71.6545 30.216C71.8785 28.8907 72.1585 27.6587 72.4945 26.52C72.6625 25.9227 72.8865 25.512 73.1665 25.288C73.4465 25.064 73.8945 24.952 74.5105 24.952C75.4625 24.952 75.9385 25.2693 75.9385 25.904C75.9385 26.3707 75.7611 27.4533 75.4065 29.152C74.9585 31.2053 74.7345 32.596 74.7345 33.324C74.7345 33.884 74.8091 34.3133 74.9585 34.612C75.1078 34.9107 75.3598 35.06 75.7145 35.06C76.0505 35.06 76.4705 34.8267 76.9745 34.36C77.4785 33.8933 78.1505 33.156 78.9905 32.148C79.2145 31.8867 79.4665 31.756 79.7465 31.756C79.9891 31.756 80.1758 31.868 80.3065 32.092C80.4558 32.316 80.5305 32.624 80.5305 33.016C80.5305 33.7627 80.3531 34.3413 79.9985 34.752C78.1505 37.0107 76.4238 38.14 74.8185 38.14ZM93.8051 29.404C94.0478 29.404 94.2344 29.5253 94.3651 29.768C94.4958 30.0107 94.5611 30.3187 94.5611 30.692C94.5611 31.588 94.2904 32.12 93.7491 32.288C92.6291 32.68 91.3971 32.904 90.0531 32.96C89.6984 34.528 88.9984 35.788 87.9531 36.74C86.9078 37.6733 85.7224 38.14 84.3971 38.14C83.2771 38.14 82.3158 37.8693 81.5131 37.328C80.7291 36.7867 80.1318 36.068 79.7211 35.172C79.3104 34.276 79.1051 33.3053 79.1051 32.26C79.1051 30.8413 79.3758 29.5813 79.9171 28.48C80.4584 27.36 81.2051 26.492 82.1571 25.876C83.1091 25.2413 84.1638 24.924 85.3211 24.924C86.7398 24.924 87.8784 25.4187 88.7371 26.408C89.6144 27.3787 90.1278 28.5827 90.2771 30.02C91.1544 29.964 92.1998 29.7773 93.4131 29.46C93.5624 29.4227 93.6931 29.404 93.8051 29.404ZM84.6211 35.172C85.2184 35.172 85.7318 34.9293 86.1611 34.444C86.6091 33.9587 86.9078 33.2587 87.0571 32.344C86.4784 31.952 86.0304 31.4387 85.7131 30.804C85.4144 30.1693 85.2651 29.4973 85.2651 28.788C85.2651 28.4893 85.2931 28.1907 85.3491 27.892H85.2091C84.4624 27.892 83.8371 28.256 83.3331 28.984C82.8478 29.6933 82.6051 30.7013 82.6051 32.008C82.6051 33.0347 82.8011 33.8187 83.1931 34.36C83.6038 34.9013 84.0798 35.172 84.6211 35.172ZM96.2739 38.14C95.4339 38.14 94.7432 37.7573 94.2019 36.992C93.6792 36.208 93.4179 35.2373 93.4179 34.08C93.4179 32.68 93.5112 31.4013 93.6979 30.244C93.8846 29.068 94.1926 27.8267 94.6219 26.52C94.8086 25.96 95.0699 25.5587 95.4059 25.316C95.7419 25.0733 96.2739 24.952 97.0019 24.952C97.4126 24.952 97.6926 25.0173 97.8419 25.148C98.0099 25.2787 98.0939 25.4747 98.0939 25.736C98.0939 25.8853 97.9912 26.3893 97.7859 27.248C97.5992 27.9387 97.4499 28.564 97.3379 29.124C96.9646 31.084 96.7779 32.3907 96.7779 33.044C96.7779 33.436 96.8246 33.716 96.9179 33.884C97.0112 34.0333 97.1606 34.108 97.3659 34.108C97.6459 34.108 97.9912 33.828 98.4019 33.268C98.8312 32.708 99.2792 31.8587 99.7459 30.72C100.231 29.5813 100.698 28.1813 101.146 26.52C101.295 25.96 101.519 25.5587 101.818 25.316C102.135 25.0733 102.602 24.952 103.218 24.952C103.647 24.952 103.946 25.008 104.114 25.12C104.282 25.2133 104.366 25.4 104.366 25.68C104.366 26.1467 104.133 27.4253 103.666 29.516C103.143 31.9053 102.882 33.38 102.882 33.94C102.882 34.2947 102.957 34.5747 103.106 34.78C103.255 34.9667 103.451 35.06 103.694 35.06C104.067 35.06 104.506 34.836 105.01 34.388C105.533 33.9213 106.223 33.1747 107.082 32.148C107.306 31.8867 107.558 31.756 107.838 31.756C108.081 31.756 108.267 31.868 108.398 32.092C108.547 32.316 108.622 32.624 108.622 33.016C108.622 33.7627 108.445 34.3413 108.09 34.752C107.287 35.7413 106.419 36.5533 105.486 37.188C104.571 37.8227 103.526 38.14 102.35 38.14C101.454 38.14 100.791 37.7947 100.362 37.104C99.9512 36.4133 99.7459 35.4427 99.7459 34.192C99.4286 35.4613 98.9526 36.4413 98.3179 37.132C97.6832 37.804 97.0019 38.14 96.2739 38.14ZM112.819 38.756C111.849 38.756 111.102 38.532 110.579 38.084C110.075 37.636 109.823 37.132 109.823 36.572C109.823 36.0867 110.001 35.6667 110.355 35.312C110.71 34.9573 111.233 34.78 111.923 34.78C112.166 34.78 112.446 34.808 112.763 34.864C113.099 34.9013 113.351 34.9293 113.519 34.948C113.501 34.4627 113.389 34.0053 113.183 33.576C112.997 33.1467 112.754 32.736 112.455 32.344C112.157 31.9333 111.877 31.5787 111.615 31.28C111.037 32.3813 110.458 33.296 109.879 34.024C109.319 34.752 108.703 35.4427 108.031 36.096C107.695 36.432 107.341 36.6 106.967 36.6C106.669 36.6 106.426 36.4973 106.239 36.292C106.053 36.068 105.959 35.7973 105.959 35.48C105.959 35.1067 106.09 34.7613 106.351 34.444L106.715 33.996C107.742 32.7267 108.517 31.6813 109.039 30.86C109.375 30.3187 109.711 29.6747 110.047 28.928C110.402 28.1813 110.859 27.164 111.419 25.876C111.774 25.0547 112.511 24.644 113.631 24.644C114.154 24.644 114.518 24.6907 114.723 24.784C114.929 24.8773 115.031 25.0267 115.031 25.232C115.031 25.344 114.994 25.5213 114.919 25.764C114.845 26.0067 114.742 26.2493 114.611 26.492C114.275 27.164 114.107 27.7333 114.107 28.2C114.107 28.48 114.201 28.788 114.387 29.124C114.593 29.46 114.901 29.88 115.311 30.384C115.909 31.168 116.357 31.84 116.655 32.4C116.973 32.9413 117.131 33.5387 117.131 34.192C117.131 34.976 116.945 35.7227 116.571 36.432C116.217 37.1227 115.713 37.6827 115.059 38.112C114.406 38.5413 113.659 38.756 112.819 38.756ZM24.14 62.904C24.42 62.792 24.6533 62.736 24.84 62.736C25.1387 62.736 25.3627 62.848 25.512 63.072C25.6613 63.296 25.736 63.5853 25.736 63.94C25.736 64.5 25.596 64.976 25.316 65.368C25.0547 65.76 24.5973 66.1147 23.944 66.432C22.8427 66.9547 21.4147 67.3747 19.66 67.692C17.9053 67.9907 16.1787 68.14 14.48 68.14C12.128 68.14 10.1587 67.8787 8.572 67.356C6.98533 66.8147 5.8 66.0773 5.016 65.144C4.25067 64.2107 3.868 63.156 3.868 61.98C3.868 60.3747 4.38133 59.012 5.408 57.892C6.45333 56.7533 7.984 55.932 10 55.428C8.89867 55.1107 8.04933 54.5507 7.452 53.748C6.87333 52.9453 6.584 52.0493 6.584 51.06C6.584 49.716 7.004 48.5307 7.844 47.504C8.70267 46.4587 9.85067 45.656 11.288 45.096C12.7253 44.536 14.3027 44.256 16.02 44.256C18.3347 44.256 20.0707 44.76 21.228 45.768C22.3853 46.7573 22.964 48.0453 22.964 49.632C22.964 50.7333 22.7587 51.6293 22.348 52.32C21.956 52.992 21.3867 53.328 20.64 53.328C20.1173 53.328 19.7067 53.216 19.408 52.992C19.1093 52.7493 18.96 52.3947 18.96 51.928C18.96 51.6107 19.0067 51.2653 19.1 50.892C19.1933 50.276 19.24 49.856 19.24 49.632C19.24 48.96 18.988 48.4187 18.484 48.008C17.98 47.5787 17.14 47.364 15.964 47.364C14.3773 47.364 13.108 47.7 12.156 48.372C11.204 49.044 10.728 49.9493 10.728 51.088C10.728 51.9653 11.0827 52.6933 11.792 53.272C12.52 53.832 13.696 54.14 15.32 54.196C15.7307 54.2147 16.02 54.308 16.188 54.476C16.356 54.644 16.44 54.924 16.44 55.316C16.44 56.548 15.88 57.1733 14.76 57.192C13.2107 57.2293 11.9227 57.444 10.896 57.836C9.888 58.228 9.15067 58.732 8.684 59.348C8.236 59.9453 8.012 60.5893 8.012 61.28C8.012 62.4373 8.55333 63.3147 9.636 63.912C10.7187 64.4907 12.436 64.78 14.788 64.78C16.3373 64.78 17.9707 64.6027 19.688 64.248C21.424 63.8747 22.908 63.4267 24.14 62.904ZM27.6964 68.14C26.5391 68.14 25.6151 67.72 24.9244 66.88C24.2338 66.04 23.8884 64.9387 23.8884 63.576C23.8884 62.0827 24.2338 60.6733 24.9244 59.348C25.6151 58.004 26.5298 56.9307 27.6684 56.128C28.8258 55.3067 30.0484 54.896 31.3364 54.896C31.7471 54.896 32.0178 54.98 32.1484 55.148C32.2978 55.2973 32.4191 55.5773 32.5124 55.988C32.9044 55.9133 33.3151 55.876 33.7444 55.876C34.6591 55.876 35.1164 56.2027 35.1164 56.856C35.1164 57.248 34.9764 58.1813 34.6964 59.656C34.2671 61.8027 34.0524 63.296 34.0524 64.136C34.0524 64.416 34.1178 64.64 34.2484 64.808C34.3978 64.976 34.5844 65.06 34.8084 65.06C35.1631 65.06 35.5924 64.836 36.0964 64.388C36.6004 63.9213 37.2818 63.1747 38.1404 62.148C38.3644 61.8867 38.6164 61.756 38.8964 61.756C39.1391 61.756 39.3258 61.868 39.4564 62.092C39.6058 62.316 39.6804 62.624 39.6804 63.016C39.6804 63.7627 39.5031 64.3413 39.1484 64.752C38.3831 65.704 37.5711 66.5067 36.7124 67.16C35.8538 67.8133 35.0231 68.14 34.2204 68.14C33.6044 68.14 33.0351 67.9347 32.5124 67.524C32.0084 67.0947 31.6258 66.516 31.3644 65.788C30.3938 67.356 29.1711 68.14 27.6964 68.14ZM28.7044 65.312C29.1151 65.312 29.5071 65.0693 29.8804 64.584C30.2538 64.0987 30.5244 63.4547 30.6924 62.652L31.7284 57.5C30.9444 57.5187 30.2164 57.8173 29.5444 58.396C28.8911 58.956 28.3684 59.7027 27.9764 60.636C27.5844 61.5693 27.3884 62.5587 27.3884 63.604C27.3884 64.1827 27.5004 64.612 27.7244 64.892C27.9671 65.172 28.2938 65.312 28.7044 65.312ZM51.1528 61.756C51.3954 61.756 51.5821 61.868 51.7128 62.092C51.8621 62.316 51.9368 62.624 51.9368 63.016C51.9368 63.7627 51.7594 64.3413 51.4048 64.752C50.6021 65.7413 49.7248 66.5533 48.7728 67.188C47.8208 67.8227 46.7288 68.14 45.4968 68.14C41.6888 68.14 39.7848 65.4613 39.7848 60.104C39.7848 59.2827 39.8128 58.452 39.8688 57.612H38.7768C38.2168 57.612 37.8341 57.5093 37.6288 57.304C37.4421 57.0987 37.3488 56.772 37.3488 56.324C37.3488 55.2787 37.7688 54.756 38.6088 54.756H40.2048C40.5221 52.7027 41.0074 50.8267 41.6608 49.128C42.3141 47.4293 43.0981 46.076 44.0128 45.068C44.9461 44.06 45.9448 43.556 47.0088 43.556C47.7928 43.556 48.4088 43.9013 48.8568 44.592C49.3048 45.2827 49.5288 46.1507 49.5288 47.196C49.5288 50.0893 48.3154 52.6093 45.8888 54.756H49.0248C49.3234 54.756 49.5381 54.8213 49.6688 54.952C49.7994 55.0827 49.8648 55.3253 49.8648 55.68C49.8648 56.968 48.8101 57.612 46.7008 57.612H43.2848C43.2474 58.5453 43.2288 59.2733 43.2288 59.796C43.2288 61.7373 43.4528 63.1 43.9008 63.884C44.3674 64.668 45.0954 65.06 46.0848 65.06C46.8874 65.06 47.5968 64.8173 48.2128 64.332C48.8288 63.8467 49.5568 63.1187 50.3968 62.148C50.6208 61.8867 50.8728 61.756 51.1528 61.756ZM46.2528 46.244C45.9728 46.244 45.6554 46.5987 45.3008 47.308C44.9648 47.9987 44.6381 48.9693 44.3208 50.22C44.0221 51.452 43.7701 52.824 43.5648 54.336C44.6661 53.384 45.4874 52.32 46.0288 51.144C46.5888 49.9493 46.8688 48.8667 46.8688 47.896C46.8688 46.7947 46.6634 46.244 46.2528 46.244ZM56.125 68.756C55.1543 68.756 54.4076 68.532 53.885 68.084C53.381 67.636 53.129 67.132 53.129 66.572C53.129 66.0867 53.3063 65.6667 53.661 65.312C54.0156 64.9573 54.5383 64.78 55.229 64.78C55.4716 64.78 55.7516 64.808 56.069 64.864C56.405 64.9013 56.657 64.9293 56.825 64.948C56.8063 64.4627 56.6943 64.0053 56.489 63.576C56.3023 63.1467 56.0596 62.736 55.761 62.344C55.4623 61.9333 55.1823 61.5787 54.921 61.28C54.3423 62.3813 53.7636 63.296 53.185 64.024C52.625 64.752 52.009 65.4427 51.337 66.096C51.001 66.432 50.6463 66.6 50.273 66.6C49.9743 66.6 49.7316 66.4973 49.545 66.292C49.3583 66.068 49.265 65.7973 49.265 65.48C49.265 65.1067 49.3956 64.7613 49.657 64.444L50.021 63.996C51.0476 62.7267 51.8223 61.6813 52.345 60.86C52.681 60.3187 53.017 59.6747 53.353 58.928C53.7076 58.1813 54.165 57.164 54.725 55.876C55.0796 55.0547 55.817 54.644 56.937 54.644C57.4596 54.644 57.8236 54.6907 58.029 54.784C58.2343 54.8773 58.337 55.0267 58.337 55.232C58.337 55.344 58.2996 55.5213 58.225 55.764C58.1503 56.0067 58.0476 56.2493 57.917 56.492C57.581 57.164 57.413 57.7333 57.413 58.2C57.413 58.48 57.5063 58.788 57.693 59.124C57.8983 59.46 58.2063 59.88 58.617 60.384C59.2143 61.168 59.6623 61.84 59.961 62.4C60.2783 62.9413 60.437 63.5387 60.437 64.192C60.437 64.976 60.2503 65.7227 59.877 66.432C59.5223 67.1227 59.0183 67.6827 58.365 68.112C57.7116 68.5413 56.965 68.756 56.125 68.756Z" fill="#F4F4F4"/>
<path d="M84.15 50.525C83.715 50.525 83.425 50.96 83.425 51.25V54.875H81.975V51.25C81.975 50.815 81.685 50.525 81.25 50.525C80.815 50.525 80.525 50.96 80.525 51.25V54.875H79.075V51.25C79.075 50.815 78.785 50.525 78.35 50.525C77.915 50.525 77.625 50.96 77.625 51.25V56.035C77.625 57.34 78.64 58.355 79.8 58.5V68.65C79.8 69.52 80.38 70.1 81.25 70.1C82.12 70.1 82.7 69.52 82.7 68.65V58.5C83.86 58.355 84.875 57.34 84.875 56.035V51.25C84.875 50.96 84.585 50.525 84.15 50.525ZM87.05 51.25V59.95H88.5V68.65C88.5 69.52 89.08 70.1 89.95 70.1C90.82 70.1 91.4 69.52 91.4 68.65V46.9C88.935 46.9 87.05 48.785 87.05 51.25ZM97.2 49.8C95.17 49.8 93.575 51.975 93.575 54.585C93.43 56.325 94.3 57.92 95.75 58.935V68.65C95.75 69.52 96.33 70.1 97.2 70.1C98.07 70.1 98.65 69.52 98.65 68.65V58.935C100.1 57.92 100.97 56.325 100.825 54.585C100.825 51.975 99.23 49.8 97.2 49.8Z" fill="white"/>
</svg>
